<?xml version="1.0" encoding="UTF-8" standalone="no"?>
<svg
   xmlns:dc="http://purl.org/dc/elements/1.1/"
   xmlns:cc="http://creativecommons.org/ns#"
   xmlns:rdf="http://www.w3.org/1999/02/22-rdf-syntax-ns#"
   xmlns:svg="http://www.w3.org/2000/svg"
   xmlns="http://www.w3.org/2000/svg"
   xmlns:sodipodi="http://sodipodi.sourceforge.net/DTD/sodipodi-0.dtd"
   xmlns:inkscape="http://www.inkscape.org/namespaces/inkscape"
   width="166.93994"
   height="36.199451"
   viewBox="0 0 166.93994 36.199451"
   class="css-1j8o68f"
   version="1.1"
   id="svg36"
   sodipodi:docname="logo.svg"
   inkscape:export-filename="C:\Users\Jonathan\Documents\projects\cn-store\img\logo.png"
   inkscape:export-xdpi="143.76427"
   inkscape:export-ydpi="143.76427"
   inkscape:version="1.0.2-2 (e86c870879, 2021-01-15)">
  <metadata
     id="metadata40">
    <rdf:RDF>
      <cc:Work
         rdf:about="">
        <dc:format>image/svg+xml</dc:format>
        <dc:type
           rdf:resource="http://purl.org/dc/dcmitype/StillImage" />
        <dc:title></dc:title>
      </cc:Work>
    </rdf:RDF>
  </metadata>
  <sodipodi:namedview
     pagecolor="#ffffff"
     bordercolor="#666666"
     borderopacity="1"
     objecttolerance="10"
     gridtolerance="10"
     guidetolerance="10"
     inkscape:pageopacity="0"
     inkscape:pageshadow="2"
     inkscape:window-width="1920"
     inkscape:window-height="1017"
     id="namedview38"
     showgrid="false"
     fit-margin-top="0"
     fit-margin-left="0"
     fit-margin-right="0"
     fit-margin-bottom="0"
     inkscape:zoom="5.0137791"
     inkscape:cx="87.359253"
     inkscape:cy="18"
     inkscape:window-x="-8"
     inkscape:window-y="-8"
     inkscape:window-maximized="1"
     inkscape:current-layer="svg36" />
  <defs
     id="SvgjsDefs1604" />
  <g
     id="SvgjsG1605"
     featurekey="nameLeftFeature-0"
     transform="matrix(1.0975609,0,0,1.0975609,1.0536585,-8.341462)"
     fill="#111111">
    <path
       d="M -0.96,40 4.68,8 h 6.48 c 4.12,0 4.76,2.52 4,8.56 l -0.2,1.28 c -1.4,6.04 -2.92,8.56 -7.04,8.56 H 5.44 L 3.04,40 Z M 6,23.2 h 2.48 c 1.2,0 1.8,-1 2.76,-5.36 l 0.2,-1.28 C 12.04,12.2 11.8,11.2 10.6,11.2 H 8.12 Z M 16.4,23.16 C 18.36,12 19.4,7.6 25.4,7.6 c 6,0 5.44,4.4 3.48,15.56 -2.24,12.8 -3.28,17.24 -9.28,17.24 -6,0 -5.44,-4.44 -3.2,-17.24 z m 3.92,13.24 c 2.24,0 2.52,-1.68 4.56,-13.24 1.84,-10.4 2.2,-12.36 -0.04,-12.36 -2.24,0 -2.6,1.96 -4.44,12.36 -2.04,11.56 -2.32,13.24 -0.08,13.24 z m 9.2,3.6 5.64,-32 h 4 l -4.92,28 h 5.2 l -0.72,4 z M 43.68,23.16 c 1.96,-11.16 3,-15.56 9,-15.56 6,0 5.44,4.4 3.48,15.56 -2.24,12.8 -3.28,17.24 -9.28,17.24 -6,0 -5.44,-4.44 -3.2,-17.24 z M 47.6,36.4 c 2.24,0 2.52,-1.68 4.56,-13.24 1.84,-10.4 2.2,-12.36 -0.04,-12.36 -2.24,0 -2.6,1.96 -4.44,12.36 C 45.64,34.72 45.36,36.4 47.6,36.4 Z M 58.8,40 61.64,8 h 4.2 L 62.8,32.08 h 0.4 L 69.84,8 h 3.4 L 71.4,32.08 h 0.4 L 77.24,8 h 4.2 L 73,40 H 68.2 L 68.88,23.28 63.6,40 Z M 79,40 84.64,8 h 9.2 l -0.56,3.2 h -5.2 l -1.84,10.4 h 4.4 l -0.56,3.2 h -4.4 L 83.72,36 h 5.2 l -0.72,4 z"
       id="path27" />
  </g>
  <g
     id="SvgjsG1606"
     featurekey="inlineSymbolFeature-0"
     transform="matrix(0.46190858,0,0,0.46190858,101.7042,-4.8959787)"
     fill="#111111">
    <path
       style="text-indent:0;text-transform:none;direction:ltr;baseline-shift:baseline;enable-background:accumulate"
       d="m 50,11.03125 -1.625,2.8125 -3.71875,6.46875 -0.53125,0.9375 0.53125,0.9375 25.75,44.59375 H 46.75 45.65625 l -0.53125,0.9375 -3.71875,6.5 L 39.78125,77 H 43 L 84.875,77.03125 88.09375,77 86.46875,74.1875 51.625,13.84375 Z M 43.09375,23 41.46875,25.8125 6.625,86.1875 5,88.96875 h 3.25 7.46875 1.09375 l 0.53125,-0.9375 25.75,-44.59375 11.84375,20.46875 0.5,0.9375 H 56.53125 64 67.25 L 65.625,62.0625 44.71875,25.8125 Z m -0.125,24.125 -1.59375,2.8125 -20.9375,36.21875 -1.625,2.8125 h 3.25 H 91.78125 95 L 93.375,86.15625 89.65625,79.6875 89.09375,78.75 h -1.0625 -51.5 l 11.8125,-20.46875 0.53125,-0.9375 -0.53125,-0.9375 -3.75,-6.46875 z"
       fill="#111111"
       fill-opacity="1"
       fill-rule="nonzero"
       stroke="none"
       marker="none"
       visibility="visible"
       display="inline"
       overflow="visible"
       id="path30" />
  </g>
  <g
     id="SvgjsG1607"
     featurekey="nameRightFeature-0"
     transform="matrix(1.125,0,0,1.125,149.30144,-9)"
     fill="#111111">
    <path
       d="M -0.96,40 4.68,8 h 6.48 c 4.12,0 5.08,2.52 4.24,7.36 -0.8,4.36 -1.76,6.84 -3.2,8.04 l -0.04,0.24 c 0.96,0.36 0.96,2.24 0.56,6.92 L 11.84,40 h -4 L 9,30.56 C 9.56,25.8 9,24.8 7.8,24.8 H 5.72 L 3.04,40 Z M 6.28,21.6 h 2.48 c 1.4,0 2.04,-1.4 2.92,-6.24 C 12.2,12.2 11.8,11.2 10.6,11.2 H 8.12 Z"
       id="path33" />
  </g>
</svg>
